<?xml version="1.0" standalone="no"?>
<!DOCTYPE svg PUBLIC "-//W3C//DTD SVG 20010904//EN"
 "http://www.w3.org/TR/2001/REC-SVG-20010904/DTD/svg10.dtd">
<svg version="1.0" xmlns="http://www.w3.org/2000/svg"
 width="200.000000pt" height="200.000000pt" viewBox="0 0 200.000000 200.000000"
 preserveAspectRatio="xMidYMid meet">

<g transform="translate(0.000000,200.000000) scale(0.100000,-0.100000)"
fill="#000000" stroke="none">
<path d="M847 1456 c-159 -56 -252 -152 -307 -316 -19 -54 -21 -81 -18 -160 4
-83 10 -105 41 -173 67 -144 186 -239 342 -272 122 -26 191 -16 250 36 90 79
82 217 -17 285 -31 22 -53 27 -134 34 -89 6 -99 9 -121 34 -25 29 -31 83 -12
118 18 33 70 48 173 48 85 0 96 2 106 20 8 14 8 26 0 40 -10 18 -21 20 -126
20 -134 0 -178 -16 -220 -79 -80 -122 1 -281 144 -281 128 0 182 -31 182 -102
0 -31 -7 -46 -31 -70 -30 -31 -31 -31 -117 -25 -62 3 -103 12 -142 30 -251
113 -313 443 -120 637 160 159 420 151 571 -19 70 -79 93 -143 94 -261 0 -84
-3 -102 -29 -157 -16 -35 -35 -68 -42 -74 -37 -31 3 -92 46 -69 43 23 102 158
115 261 8 69 -15 184 -52 258 -105 207 -361 313 -576 237z"/>
</g>
</svg>
